<svg width="20" height="19" viewBox="0 0 20 19" fill="none" xmlns="http://www.w3.org/2000/svg">
<path d="M9.99998 0.375C8.18699 0.375 6.41471 0.912616 4.90726 1.91986C3.39981 2.92711 2.22489 4.35875 1.53109 6.03374C0.837285 7.70872 0.655754 9.55184 1.00945 11.33C1.36315 13.1082 2.23619 14.7415 3.51817 16.0235C4.80015 17.3055 6.4335 18.1785 8.21166 18.5322C9.98981 18.8859 11.8329 18.7044 13.5079 18.0106C15.1829 17.3168 16.6145 16.1418 17.6218 14.6344C18.629 13.1269 19.1667 11.3547 19.1667 9.54167C19.1638 7.1114 18.1971 4.78148 16.4786 3.06302C14.7602 1.34456 12.4303 0.377867 9.99998 0.375ZM13.9225 8.0475L9.75582 12.2142C9.59954 12.3704 9.38762 12.4582 9.16665 12.4582C8.94568 12.4582 8.73376 12.3704 8.57748 12.2142L6.07748 9.71417C5.99789 9.63729 5.93441 9.54534 5.89073 9.44367C5.84706 9.342 5.82407 9.23265 5.82311 9.122C5.82215 9.01135 5.84323 8.90162 5.88513 8.79921C5.92703 8.69679 5.98891 8.60375 6.06715 8.52551C6.1454 8.44726 6.23844 8.38538 6.34086 8.34348C6.44327 8.30158 6.553 8.2805 6.66365 8.28146C6.7743 8.28242 6.88365 8.30541 6.98532 8.34908C7.08699 8.39276 7.17894 8.45624 7.25582 8.53583L9.16665 10.4467L12.7442 6.86917C12.9013 6.71737 13.1118 6.63337 13.3303 6.63527C13.5488 6.63717 13.7578 6.72481 13.9123 6.87932C14.0668 7.03382 14.1545 7.24284 14.1564 7.46133C14.1583 7.67983 14.0743 7.89033 13.9225 8.0475Z" fill="#02bf9b"/>
</svg>
